<svg width="107" height="27" viewBox="0 0 107 27" fill="none" xmlns="http://www.w3.org/2000/svg">
<path d="M16.08 6.47C15.1 5.93333 14.0967 5.49 13.07 5.14C12.0667 4.79 11.1217 4.615 10.235 4.615C9.13833 4.615 8.275 4.83667 7.645 5.28C7.015 5.72333 6.7 6.38833 6.7 7.275C6.7 7.88167 6.93333 8.43 7.4 8.92C7.89 9.38667 8.50833 9.80667 9.255 10.18C10.025 10.5533 10.8183 10.8917 11.635 11.195C12.3817 11.475 13.1167 11.8133 13.84 12.21C14.5867 12.5833 15.2517 13.0617 15.835 13.645C16.4183 14.205 16.885 14.9167 17.235 15.78C17.585 16.62 17.76 17.6583 17.76 18.895C17.76 20.2017 17.4217 21.415 16.745 22.535C16.0683 23.655 15.0767 24.565 13.77 25.265C12.4633 25.9417 10.8533 26.28 8.94 26.28C7.96 26.28 6.95667 26.1867 5.93 26C4.92667 25.79 3.935 25.4867 2.955 25.09C1.975 24.67 1.03 24.145 0.12 23.515L2.36 19.56C2.96667 20.0033 3.62 20.4 4.32 20.75C5.04333 21.0767 5.76667 21.3333 6.49 21.52C7.21333 21.7067 7.87833 21.8 8.485 21.8C9.09167 21.8 9.69833 21.7183 10.305 21.555C10.935 21.3683 11.4483 21.065 11.845 20.645C12.265 20.225 12.475 19.6417 12.475 18.895C12.475 18.3817 12.3 17.915 11.95 17.495C11.6233 17.075 11.1683 16.69 10.585 16.34C10.025 15.99 9.40667 15.6867 8.73 15.43C7.93667 15.1267 7.12 14.7767 6.28 14.38C5.44 13.9833 4.64667 13.505 3.9 12.945C3.17667 12.3617 2.58167 11.65 2.115 10.81C1.67167 9.94667 1.45 8.89667 1.45 7.66C1.45 6.16667 1.77667 4.87167 2.43 3.775C3.10667 2.67833 4.05167 1.815 5.265 1.185C6.47833 0.531665 7.87833 0.169999 9.465 0.0999997C11.5417 0.0999997 13.2217 0.344999 14.505 0.834999C15.8117 1.325 16.9783 1.90833 18.005 2.585L16.08 6.47ZM41.9453 0.239998V26H36.8703V15.535H25.3553V26H20.2803V0.239998H25.3553V10.635H36.8703V0.239998H41.9453ZM46.9711 1.43H61.6361V2.095H47.6711V13.26H60.2711V13.925H47.6711V25.335H62.1261V26H46.9711V1.43ZM66.6011 1.43H81.2661V2.095H67.3011V13.26H79.9011V13.925H67.3011V25.335H81.7561V26H66.6011V1.43ZM106.321 26.455L86.7212 2.69L86.8962 2.34L86.9312 26H86.2312V1.045H86.2662L106.041 25.055L105.691 25.02V1.43H106.356V26.455H106.321Z" fill="#060606"/>
</svg>
