<svg width="18" height="18" viewBox="0 0 18 18" fill="none" xmlns="http://www.w3.org/2000/svg">
<path d="M16.6226 11.1139C15.2728 11.4924 13.8466 11.5048 12.4904 11.1499C11.1342 10.7949 9.89697 10.0853 8.90571 9.09407C7.91444 8.1028 7.20489 6.86555 6.84992 5.50938C6.49495 4.15321 6.50735 2.72699 6.88586 1.3772C5.55509 1.7476 4.34458 2.4602 3.37492 3.44402C2.40526 4.42785 1.71028 5.64855 1.35921 6.98455C1.00814 8.32056 1.01323 9.72523 1.37398 11.0586C1.73472 12.3921 2.43853 13.6077 3.4153 14.5845C4.39206 15.5612 5.6077 16.2651 6.94113 16.6258C8.27455 16.9865 9.67922 16.9916 11.0152 16.6406C12.3512 16.2895 13.5719 15.5945 14.5558 14.6249C15.5396 13.6552 16.2522 12.4447 16.6226 11.1139V11.1139Z" stroke="black" stroke-width="1.3125" stroke-linecap="round" stroke-linejoin="round"/>
</svg>
