<svg width="107" height="27" fill="none" xmlns="http://www.w3.org/2000/svg"><path d="M16.08 6.47a19.07 19.07 0 00-3.01-1.33c-1.003-.35-1.948-.525-2.835-.525-1.097 0-1.96.222-2.59.665-.63.443-.945 1.108-.945 1.995 0 .607.233 1.155.7 1.645.49.467 1.108.887 1.855 1.26.77.373 1.563.712 2.38 1.015.747.28 1.482.618 2.205 1.015a7.62 7.62 0 011.995 1.435c.583.56 1.05 1.272 1.4 2.135.35.84.525 1.878.525 3.115 0 1.307-.338 2.52-1.015 3.64-.677 1.12-1.668 2.03-2.975 2.73-1.307.677-2.917 1.015-4.83 1.015-.98 0-1.983-.093-3.01-.28a17.44 17.44 0 01-2.975-.91c-.98-.42-1.925-.945-2.835-1.575l2.24-3.955c.607.443 1.26.84 1.96 1.19.723.327 1.447.583 2.17.77.723.187 1.388.28 1.995.28.607 0 1.213-.082 1.82-.245.63-.187 1.143-.49 1.54-.91.42-.42.63-1.003.63-1.75 0-.513-.175-.98-.525-1.4-.327-.42-.782-.805-1.365-1.155a10.55 10.55 0 00-1.855-.91 35.1 35.1 0 01-2.45-1.05 13.727 13.727 0 01-2.38-1.435 7.207 7.207 0 01-1.785-2.135c-.443-.863-.665-1.913-.665-3.15 0-1.493.327-2.788.98-3.885.677-1.097 1.622-1.96 2.835-2.59C6.478.532 7.878.17 9.465.1c2.077 0 3.757.245 5.04.735 1.307.49 2.473 1.073 3.5 1.75L16.08 6.47zM41.945.24V26H36.87V15.535H25.355V26H20.28V.24h5.075v10.395H36.87V.24h5.075zm5.026 1.19h14.665v.665H47.671V13.26h12.6v.665h-12.6v11.41h14.455V26H46.971V1.43zm19.63 0h14.665v.665H67.301V13.26h12.6v.665h-12.6v11.41h14.455V26H66.601V1.43zm39.72 25.025L86.721 2.69l.175-.35.035 23.66h-.7V1.045h.035l19.775 24.01-.35-.035V1.43h.665v25.025h-.035z" fill="#060606"/></svg>